<svg width="245" height="218" viewBox="0 0 245 218" fill="none" xmlns="http://www.w3.org/2000/svg">
<g clip-path="url(#clip0_6_134)">
<path d="M239.025 91.1237C234.818 125.176 212.835 155.365 184.694 174.993C182.41 176.587 180.07 178.117 177.673 179.582C177.372 179.766 177.072 179.949 176.771 180.13C160.049 190.163 140.891 196.59 121.644 194.586C106.008 192.96 90.6535 184.641 81.4899 172.214C81.3167 171.981 81.1434 171.74 80.9773 171.503C77.2444 166.326 74.7129 160.382 73.5672 154.102C71.9197 144.808 73.1995 134.531 68.0803 126.601C61.4409 116.313 47.2217 114.637 34.9859 115.023C23.549 115.38 12.1298 116.617 0.707071 117.261C0.473737 117.275 0.236869 117.285 0 117.299V8.02172C0.00256073 5.89501 0.848526 3.85614 2.35234 2.35233C3.85614 0.848526 5.89501 0.00256072 8.02172 0H57.7748C60.1823 0.314646 61.8864 5.14394 64.2869 5.30303C65.3263 5.37374 66.3645 5.4303 67.4015 5.47272C72.8566 5.69899 78.3046 5.60353 83.7455 5.30303C86.9238 5.1298 90.8091 0.289899 93.9839 0H185.854C186.539 0.226263 187.218 0.463131 187.897 0.707071C190.822 1.76105 193.679 2.99368 196.453 4.39798C227.055 19.9146 243.232 57.0712 239.025 91.1237Z" fill="#3F3D56"/>
<path d="M200.592 45.6556C186.348 58.9131 167.48 67.4192 148.099 69.4591C146.197 69.6606 144.291 69.7985 142.379 69.8727C141.955 69.8904 141.531 69.901 141.103 69.9116C140.41 69.9293 139.714 69.9364 139.021 69.9364C138.19 69.9364 137.359 69.9246 136.528 69.901C131.719 69.7607 126.929 69.237 122.203 68.3348C122.03 68.2995 121.86 68.2677 121.687 68.2323C120.941 68.0874 120.197 67.9318 119.456 67.7656C118.035 67.451 116.621 67.1022 115.214 66.7192C114.758 66.5954 114.302 66.4682 113.845 66.3338C113.191 66.1465 112.541 65.9485 111.89 65.747C111.646 65.6692 111.403 65.5949 111.159 65.5136C110.911 65.4359 110.664 65.3545 110.416 65.2697C108.907 64.7747 107.41 64.2374 105.926 63.6576C97.4765 60.3931 89.5665 55.875 82.4621 50.255C81.4793 49.4737 80.4823 48.6535 79.5207 47.8581C74.352 43.5944 69.0066 39.1859 62.4909 38.2242C55.4556 37.1884 48.696 40.3914 42.1626 43.4884C39.946 44.5384 37.655 45.6237 35.3889 46.5323C24.3265 50.8898 12.1347 51.4727 0.707071 48.1904C0.470202 48.1268 0.233333 48.0561 0 47.9854V47.2465C0.233333 47.3172 0.470202 47.3879 0.707071 47.455C12.039 50.7539 24.1453 50.1981 35.1273 45.8747C37.3722 44.9768 39.6561 43.8949 41.8621 42.8485C48.4909 39.7056 55.346 36.4566 62.5934 37.5242C69.3035 38.5141 74.7268 42.9864 79.9697 47.3136C80.9313 48.1055 81.9247 48.9258 82.9005 49.7035C89.9576 55.2875 97.8168 59.7748 106.213 63.0141H106.216C107.637 63.5656 109.076 64.0853 110.522 64.5662C110.731 64.6333 110.939 64.7005 111.148 64.7712C111.381 64.8454 111.618 64.9197 111.852 64.9939C112.449 65.1848 113.048 65.3663 113.647 65.5384C114.234 65.7151 114.825 65.8825 115.419 66.0404H115.422C116.942 66.454 118.472 66.8276 120.011 67.1611C120.708 67.3167 121.404 67.4581 122.108 67.5924C122.26 67.6242 122.415 67.6525 122.571 67.6808C127.104 68.5364 131.698 69.0399 136.309 69.1869H136.313C137.914 69.2363 139.513 69.2422 141.11 69.2045C141.527 69.1939 141.941 69.1798 142.355 69.1657C144.161 69.0949 145.965 68.9677 147.767 68.7838H147.771C167.091 66.8076 185.914 58.351 200.112 45.1359C200.181 45.0726 200.272 45.0391 200.365 45.043C200.459 45.0468 200.547 45.0876 200.611 45.1563C200.674 45.225 200.708 45.3161 200.705 45.4097C200.701 45.5033 200.661 45.5917 200.592 45.6556Z" fill="#D1D5DB"/>
<path d="M0.109595 32.1505C0.0878335 32.241 0.0507687 32.3271 0 32.405V31.4187C0.129096 31.6395 0.168334 31.9015 0.109595 32.1505Z" fill="#FF6584"/>
<path d="M2.89927 35.8951C2.9702 35.2603 2.6697 34.7056 2.22807 34.6563C1.78644 34.6069 1.37093 35.0816 1.29999 35.7164C1.22906 36.3513 1.52956 36.9059 1.97119 36.9553C2.41282 37.0046 2.82833 36.53 2.89927 35.8951Z" fill="#E6E6E6"/>
<path d="M3.88312 43.3929C3.95406 42.758 3.65355 42.2034 3.21193 42.154C2.7703 42.1047 2.35478 42.5793 2.28385 43.2142C2.21291 43.849 2.51342 44.4037 2.95505 44.453C3.39667 44.5023 3.81219 44.0277 3.88312 43.3929Z" fill="#3F3D56"/>
<path d="M178.521 103.185C178.694 102.503 178.04 101.749 177.06 101.501C176.08 101.253 175.146 101.604 174.973 102.286C174.801 102.967 175.455 103.721 176.435 103.969C177.414 104.218 178.349 103.866 178.521 103.185Z" fill="white"/>
<path d="M166.556 103.108C166.729 102.426 166.075 101.672 165.095 101.424C164.115 101.176 163.181 101.527 163.008 102.209C162.836 102.89 163.49 103.644 164.47 103.892C165.449 104.141 166.384 103.789 166.556 103.108Z" fill="#3F3D56"/>
<path d="M180.767 113.112C180.939 112.43 180.285 111.676 179.305 111.428C178.326 111.18 177.391 111.531 177.219 112.212C177.046 112.894 177.7 113.648 178.68 113.896C179.66 114.144 180.594 113.793 180.767 113.112Z" fill="#FF6584"/>
<path d="M183.556 116.855C183.627 116.22 183.326 115.665 182.885 115.616C182.443 115.567 182.027 116.041 181.957 116.676C181.886 117.311 182.186 117.865 182.628 117.915C183.069 117.964 183.485 117.49 183.556 116.855Z" fill="#E6E6E6"/>
<path d="M184.54 124.352C184.611 123.718 184.31 123.163 183.868 123.114C183.427 123.064 183.011 123.539 182.94 124.174C182.869 124.809 183.17 125.363 183.612 125.413C184.053 125.462 184.469 124.987 184.54 124.352Z" fill="#3F3D56"/>
<path d="M172.307 110.064C172.378 109.429 172.078 108.874 171.636 108.825C171.194 108.776 170.779 109.25 170.708 109.885C170.637 110.52 170.938 111.075 171.379 111.124C171.821 111.173 172.236 110.699 172.307 110.064Z" fill="#E6E6E6"/>
<path d="M178.329 107.802C178.4 107.167 178.099 106.612 177.657 106.563C177.216 106.514 176.8 106.988 176.729 107.623C176.658 108.258 176.959 108.813 177.401 108.862C177.842 108.911 178.258 108.437 178.329 107.802Z" fill="#FF6584"/>
<path d="M170.911 101.691C170.981 101.056 170.681 100.501 170.239 100.452C169.798 100.402 169.382 100.877 169.311 101.512C169.24 102.147 169.541 102.701 169.982 102.751C170.424 102.8 170.84 102.325 170.911 101.691Z" fill="#3F3D56"/>
<path d="M17.6628 19.397C17.8355 18.7154 17.1813 17.9616 16.2015 17.7133C15.2217 17.465 14.2875 17.8163 14.1147 18.4978C13.942 19.1794 14.5962 19.9332 15.576 20.1815C16.5558 20.4298 17.4901 20.0786 17.6628 19.397Z" fill="white"/>
<path d="M5.69788 19.3199C5.87061 18.6383 5.21637 17.8845 4.2366 17.6362C3.25683 17.3879 2.32254 17.7391 2.14981 18.4207C1.97708 19.1023 2.63132 19.8561 3.61109 20.1044C4.59086 20.3527 5.52515 20.0015 5.69788 19.3199Z" fill="#3F3D56"/>
<path d="M19.9081 29.3237C20.0808 28.6422 19.4266 27.8883 18.4468 27.64C17.467 27.3917 16.5328 27.743 16.36 28.4246C16.1873 29.1062 16.8415 29.86 17.8213 30.1083C18.8011 30.3566 19.7354 30.0053 19.9081 29.3237Z" fill="#FF6584"/>
<path d="M22.6972 33.0668C22.7682 32.432 22.4677 31.8774 22.0261 31.828C21.5844 31.7787 21.1689 32.2533 21.098 32.8881C21.027 33.523 21.3275 34.0776 21.7692 34.127C22.2108 34.1763 22.6263 33.7017 22.6972 33.0668Z" fill="#E6E6E6"/>
<path d="M23.6811 40.5646C23.752 39.9297 23.4515 39.3751 23.0099 39.3258C22.5683 39.2764 22.1528 39.751 22.0818 40.3859C22.0109 41.0207 22.3114 41.5754 22.753 41.6247C23.1947 41.6741 23.6102 41.1994 23.6811 40.5646Z" fill="#3F3D56"/>
<path d="M11.4487 26.2761C11.5196 25.6413 11.2191 25.0866 10.7775 25.0373C10.3359 24.988 9.92034 25.4626 9.8494 26.0974C9.77847 26.7323 10.079 27.2869 10.5206 27.3363C10.9622 27.3856 11.3777 26.911 11.4487 26.2761Z" fill="#E6E6E6"/>
<path d="M17.47 24.014C17.5409 23.3792 17.2404 22.8246 16.7988 22.7752C16.3572 22.7259 15.9416 23.2005 15.8707 23.8353C15.7998 24.4702 16.1003 25.0248 16.5419 25.0742C16.9835 25.1235 17.3991 24.6489 17.47 24.014Z" fill="#FF6584"/>
<path d="M10.052 17.9026C10.1229 17.2678 9.82243 16.7132 9.38081 16.6638C8.93918 16.6145 8.52366 17.0891 8.45273 17.7239C8.38179 18.3588 8.6823 18.9134 9.12393 18.9628C9.56555 19.0121 9.98107 18.5375 10.052 17.9026Z" fill="#3F3D56"/>
<path d="M55.9904 70.0337C56.7714 70.0337 57.4045 69.4006 57.4045 68.6195C57.4045 67.8385 56.7714 67.2054 55.9904 67.2054C55.2094 67.2054 54.5762 67.8385 54.5762 68.6195C54.5762 69.4006 55.2094 70.0337 55.9904 70.0337Z" fill="white"/>
<path d="M21.3439 83.468C21.7344 83.468 22.051 83.1515 22.051 82.761C22.051 82.3705 21.7344 82.0539 21.3439 82.0539C20.9534 82.0539 20.6368 82.3705 20.6368 82.761C20.6368 83.1515 20.9534 83.468 21.3439 83.468Z" fill="white"/>
<path d="M161.697 136.145C162.088 136.145 162.405 135.828 162.405 135.438C162.405 135.047 162.088 134.731 161.697 134.731C161.307 134.731 160.99 135.047 160.99 135.438C160.99 135.828 161.307 136.145 161.697 136.145Z" fill="white"/>
<path d="M70.4854 103.62C70.8759 103.62 71.1924 103.303 71.1924 102.912C71.1924 102.522 70.8759 102.205 70.4854 102.205C70.0948 102.205 69.7783 102.522 69.7783 102.912C69.7783 103.303 70.0948 103.62 70.4854 103.62Z" fill="white"/>
<path d="M83.2126 29.7307C83.6031 29.7307 83.9197 29.4141 83.9197 29.0236C83.9197 28.6331 83.6031 28.3165 83.2126 28.3165C82.8221 28.3165 82.5055 28.6331 82.5055 29.0236C82.5055 29.4141 82.8221 29.7307 83.2126 29.7307Z" fill="white"/>
<path d="M198.819 56.9529C199.209 56.9529 199.526 56.6363 199.526 56.2458C199.526 55.8553 199.209 55.5387 198.819 55.5387C198.428 55.5387 198.112 55.8553 198.112 56.2458C198.112 56.6363 198.428 56.9529 198.819 56.9529Z" fill="white"/>
<path d="M34.4247 20.1852C34.8152 20.1852 35.1318 19.8686 35.1318 19.4781C35.1318 19.0876 34.8152 18.7711 34.4247 18.7711C34.0342 18.7711 33.7177 19.0876 33.7177 19.4781C33.7177 19.8686 34.0342 20.1852 34.4247 20.1852Z" fill="white"/>
<path d="M163.112 16.6499C163.893 16.6499 164.526 16.0167 164.526 15.2357C164.526 14.4547 163.893 13.8216 163.112 13.8216C162.331 13.8216 161.697 14.4547 161.697 15.2357C161.697 16.0167 162.331 16.6499 163.112 16.6499Z" fill="white"/>
<path d="M226.393 203.141H225.686C225.686 199.062 221.865 195.07 214.324 191.277C206.945 187.565 196.368 184.227 182.891 181.36C180.897 180.936 178.857 180.526 176.771 180.13C165.981 178.079 153.993 176.4 141.153 175.124C138.497 174.859 135.805 174.612 133.074 174.385C132.19 174.307 131.299 174.236 130.405 174.162C127.92 173.968 125.408 173.786 122.871 173.618C109.628 172.741 95.7232 172.264 81.4899 172.214C80.652 172.207 79.8106 172.207 78.9692 172.207C60.4333 172.207 56.2475 173.957 56 175.428C55.3672 179.147 76.8056 186.617 97.5369 193.847C120.485 201.844 144.069 210.067 152.102 217.071C152.374 217.308 152.628 217.544 152.865 217.778H151.893C151.635 217.544 151.356 217.308 151.059 217.071C142.577 210.297 118.788 202.003 97.3035 194.512C70.8096 185.277 54.6071 179.409 55.3 175.308C55.6005 173.533 58.5631 171.5 78.9692 171.5C79.6374 171.5 80.3091 171.5 80.9773 171.504C95.2071 171.542 109.112 172.009 122.369 172.879C124.961 173.045 127.526 173.229 130.066 173.43C131.01 173.505 131.95 173.579 132.887 173.66C135.687 173.893 138.45 174.146 141.177 174.417C154.357 175.725 166.649 177.457 177.673 179.582C179.497 179.935 181.286 180.298 183.039 180.671C210.997 186.617 226.393 194.596 226.393 203.141Z" fill="#E6E6E6"/>
<path d="M215.435 201.437H214.728C214.728 198.418 202.393 195.185 184.032 195.185C165.671 195.185 153.337 198.418 153.337 201.437H152.63C152.63 197.081 168.596 194.478 184.032 194.478C199.468 194.478 215.435 197.081 215.435 201.437Z" fill="#E6E6E6"/>
<path d="M203.098 203.493H202.39C202.39 201.788 194.893 199.888 184.135 199.888C173.377 199.888 165.88 201.788 165.88 203.493H165.173C165.173 200.692 174.942 199.181 184.135 199.181C193.328 199.181 203.098 200.692 203.098 203.493Z" fill="#E6E6E6"/>
<path d="M127.405 47.4074C135.215 47.4074 141.546 41.0761 141.546 33.266C141.546 25.4559 135.215 19.1246 127.405 19.1246C119.594 19.1246 113.263 25.4559 113.263 33.266C113.263 41.0761 119.594 47.4074 127.405 47.4074Z" fill="#F2F2F2"/>
<path d="M125.283 48.468C133.093 48.468 139.425 42.1367 139.425 34.3266C139.425 26.5165 133.093 20.1852 125.283 20.1852C117.473 20.1852 111.142 26.5165 111.142 34.3266C111.142 42.1367 117.473 48.468 125.283 48.468Z" fill="#F2F2F2"/>
<path d="M140.839 189.156L127.584 189.155V188.988C127.584 187.619 128.128 186.307 129.095 185.34C130.063 184.372 131.375 183.829 132.743 183.828L135.164 181.992L139.682 183.829L140.839 183.829L140.839 189.156Z" fill="#F2F2F2"/>
<path d="M134.668 181.997L123.344 188.885L123.257 188.741C122.546 187.572 122.328 186.169 122.652 184.839C122.976 183.51 123.814 182.364 124.983 181.653L126.098 178.825L130.912 178.047L131.9 177.446L134.668 181.997Z" fill="#F2F2F2"/>
<path d="M142.455 144.442C142.394 144.866 142.306 146.309 142.203 148.409C141.705 158.591 140.839 184.226 140.839 184.226L135.44 182.546C135.44 182.546 129.02 163.18 130.081 152.574L129.317 148.883L128.009 142.576V142.572L124.025 123.365C124.025 123.365 123.151 128.569 123.081 129.788C123.01 131.008 122.303 131.361 121.949 131.361C120.178 131.361 120.723 131.047 120.981 132.797C121.168 134.055 119.634 141.271 118.757 145.217C118.418 146.751 118.177 147.79 118.177 147.79L119.676 151.022L132.103 177.82L127.405 180.337L108.66 152.556L106.811 149.816L106.415 146.744L103.297 122.573C103.297 122.573 102.325 119.84 103.297 119.769C104.273 119.695 104.824 120.002 104.548 118.967C104.273 117.927 109.929 100.604 109.929 100.604L139.273 106.968C139.273 106.968 142.165 112.716 141.04 115.452C139.913 118.189 141.963 139.38 140.793 140.32C139.626 141.26 138.873 140.507 140.485 142.123C140.732 142.38 141.023 142.591 141.344 142.745C142.341 143.198 142.737 142.462 142.455 144.442Z" fill="#F2F2F2"/>
<path d="M125.191 43.1368C129.693 43.1368 133.342 39.4875 133.342 34.9858C133.342 30.4841 129.693 26.8348 125.191 26.8348C120.69 26.8348 117.04 30.4841 117.04 34.9858C117.04 39.4875 120.69 43.1368 125.191 43.1368Z" fill="#A0616A"/>
<path d="M131.543 42.0057L128.312 42.6244C128.312 42.6244 131.317 37.7739 131.14 35.5537C130.964 33.3335 128.545 32.5381 128.545 32.5381C128.545 32.5381 127.205 32.8279 125.795 32.9906C125.626 32.5149 125.407 32.0586 125.141 31.6295C125.088 32.1835 124.843 32.7015 124.448 33.0931C123.931 33.1375 123.41 33.0774 122.917 32.9163C122.358 32.6618 122.369 32.2199 122.553 31.8062C120.732 31.9565 118.956 32.4444 117.314 33.2451C117.232 32.1597 117.274 31.0687 117.437 29.9926C117.515 29.9714 117.593 29.9467 117.671 29.9219C118.152 29.7695 118.617 29.5668 119.056 29.3173C118.567 29.2524 118.11 29.0375 117.748 28.7022C118.045 27.8325 118.519 27.0795 119.265 26.7118C119.985 26.3598 120.772 26.1666 121.573 26.1453C122.373 26.1239 123.17 26.2749 123.907 26.5881C123.907 26.5881 122.178 25.3259 122.815 24.8098C122.857 24.8522 122.899 24.8911 122.945 24.93C123.005 24.9794 123.073 25.0325 123.136 25.082C123.529 25.4002 124.116 24.9512 124.193 24.4704C124.202 24.4097 124.213 24.3495 124.229 24.2901C124.239 24.2406 124.253 24.1911 124.268 24.1451C124.28 24.1043 124.294 24.0642 124.31 24.0249C125.487 23.7421 129.047 24.8911 130.416 27.4224C130.416 27.4224 139.979 32.0184 131.543 42.0057Z" fill="#3F3D56"/>
<path d="M128.591 114.678C128.473 113.864 128.677 113.036 129.161 112.37C129.644 111.705 130.368 111.254 131.179 111.114C131.344 111.088 131.511 111.076 131.678 111.077L140.201 91.2858L146.048 95.6752L134.664 114.425C134.604 115.118 134.315 115.771 133.844 116.283C133.373 116.795 132.746 117.136 132.06 117.254C131.669 117.317 131.27 117.303 130.885 117.212C130.5 117.121 130.136 116.955 129.815 116.723C129.494 116.492 129.222 116.199 129.014 115.862C128.806 115.526 128.666 115.151 128.603 114.76C128.598 114.733 128.594 114.706 128.591 114.678Z" fill="#D1D5DB"/>
<path d="M104.716 116.292C105.29 115.702 105.61 114.911 105.61 114.089C105.609 113.266 105.288 112.476 104.714 111.886C104.595 111.768 104.467 111.661 104.331 111.564L109.052 90.5387L101.742 90.6592L99.9486 112.52C99.5909 113.117 99.4407 113.815 99.5216 114.506C99.6024 115.197 99.9097 115.841 100.395 116.339C100.675 116.62 101.006 116.843 101.372 116.995C101.737 117.148 102.129 117.227 102.524 117.228C102.92 117.229 103.312 117.152 103.679 117.002C104.045 116.851 104.377 116.63 104.658 116.351C104.678 116.331 104.697 116.312 104.716 116.292Z" fill="#D1D5DB"/>
<path d="M151.823 81.0958C150.763 82.5099 149.348 80.9155 150.763 82.9519C151.735 84.3519 146.163 97.4751 142.596 105.514C140.984 109.152 139.778 111.751 139.778 111.751L133.765 108.268L133.061 107.862C133.061 107.862 138.576 93.9822 140.351 88.9938C140.644 88.1665 140.839 87.5832 140.885 87.3498C141.217 85.6917 141.26 84.2705 140.885 83.7438C140.796 83.5474 140.721 83.3455 140.659 83.1392C139.948 81.0569 137.784 74.0251 135.759 67.3751C135.168 65.4236 134.585 63.5074 134.054 61.7574C132.693 57.264 131.672 53.8736 131.672 53.8736L139.803 54.2271C139.803 54.2271 139.937 54.4534 140.174 54.8635C140.74 55.8392 141.899 57.8509 143.243 60.269C144.212 62.0084 145.279 63.9635 146.287 65.8867C148.853 70.7796 151.063 75.4923 150.409 76.1463C148.995 77.5604 147.549 76.7579 149.331 78.5716C151.116 80.3887 152.884 79.6817 151.823 81.0958Z" fill="#F2F2F2"/>
<path d="M142.1 99.8971C139.979 97.7971 140.371 88.2269 140.371 88.2269C140.371 88.2269 142.482 56.0906 139.625 53.9375C137.65 52.512 135.548 51.2706 133.346 50.2289C133.219 50.1724 133.152 50.1406 133.152 50.1406L131.328 44.9966L120.089 44.4133L118.127 48.2244C118.127 48.2244 117.819 48.2456 117.338 48.3128C115.542 48.5603 111.321 49.437 111.696 52.1699C112.17 55.6345 108.825 76.9138 107.807 77.9779C106.789 79.0421 107.057 82.931 109.575 85.4022C112.092 87.8734 110.282 94.5941 108.514 97.4224C107.453 99.1535 106.963 101.174 107.114 103.199C107.114 103.199 108.514 110.857 112.049 108.382C113.396 107.438 115.309 107.318 117.61 107.491C117.633 107.493 117.657 107.496 117.68 107.497L117.61 107.845C120.806 108.081 124.755 108.884 128.98 108.838L128.855 108.483C128.897 108.483 128.938 108.485 128.98 108.484C129.694 108.477 130.412 108.446 131.14 108.382C137.44 107.834 140.223 109.566 141.039 107.675C141.856 105.783 144.221 101.997 142.1 99.8971Z" fill="#F2F2F2"/>
<path opacity="0.3" d="M125.283 44.9327C131.141 44.9327 135.889 40.1842 135.889 34.3266C135.889 28.4691 131.141 23.7206 125.283 23.7206C119.426 23.7206 114.677 28.4691 114.677 34.3266C114.677 40.1842 119.426 44.9327 125.283 44.9327Z" fill="#D1D5DB"/>
<path d="M120.182 50.3382C120.182 50.3382 118.57 55.6907 116.692 61.867C116.102 63.8115 115.483 65.8372 114.882 67.8064C112.92 74.2089 111.131 79.9786 110.965 80.2084C110.59 80.7352 110.636 82.1564 110.965 83.8145C111.032 84.1468 110.88 85.4408 110.594 87.2968C110.219 89.7327 109.615 93.1337 108.971 96.6054C108.459 99.3806 107.921 102.198 107.458 104.599C106.733 108.325 106.192 111.044 106.192 111.044H99.4752C99.4752 111.044 100.737 82.8635 102.152 80.8307C103.566 78.7943 102.152 80.3888 101.091 78.9746C100.03 77.5605 101.798 78.2675 103.58 76.4504C105.362 74.6367 103.919 75.4393 102.505 74.0251C101.982 73.5019 103.152 70.168 104.835 66.1766C105.62 64.3241 106.514 62.3267 107.398 60.4034C109.226 56.4332 111.018 52.7812 111.729 51.3388C111.729 51.3352 111.732 51.3317 111.732 51.3282L112.05 50.6918L120.182 50.3382Z" fill="#F2F2F2"/>
<path d="M134.829 51.6499C127.447 54.517 120.811 55.0112 115.384 51.6499V45.2862C121.775 49.1208 128.259 49.016 134.829 45.2862V51.6499Z" fill="#3F3D56"/>
<path d="M140.485 92.3064C129.078 95.1735 118.821 95.6677 110.435 92.3064V85.9428C120.312 89.7774 130.332 89.6725 140.485 85.9428V92.3064Z" fill="#3F3D56"/>
<path d="M142.455 144.442C142.394 144.866 142.306 146.309 142.204 148.409C137.944 149.099 133.616 149.258 129.317 148.883L128.009 142.576C132.413 143.38 136.921 143.437 141.344 142.745C142.341 143.198 142.737 142.462 142.455 144.442Z" fill="#3F3D56"/>
<path d="M119.676 151.022C116.051 151.828 112.367 152.341 108.66 152.556L106.811 149.816L106.415 146.744C110.582 146.851 114.742 146.336 118.757 145.216C118.418 146.751 118.177 147.79 118.177 147.79L119.676 151.022Z" fill="#3F3D56"/>
<path d="M120.687 65.0842C120.687 66.0218 120.315 66.9211 119.652 67.5841C118.989 68.2471 118.09 68.6195 117.152 68.6195C116.214 68.6195 115.315 68.2471 114.652 67.5841C113.989 66.9211 113.617 66.0218 113.617 65.0842C113.617 63.1317 116.798 59.0741 117.152 61.5488C117.506 64.0236 120.687 63.1317 120.687 65.0842Z" fill="#D1D5DB"/>
<path d="M117.536 59.0899C117.409 59.0793 117.282 59.0757 117.151 59.0757C115.612 59.0777 114.132 59.669 113.016 60.7283C111.899 61.7876 111.231 63.2344 111.148 64.7712C111.144 64.8737 111.141 64.9798 111.141 65.0858C111.141 65.2308 111.144 65.3722 111.159 65.5136C111.247 66.7721 111.73 67.9706 112.539 68.9391C113.348 69.9076 114.441 70.5969 115.663 70.9091C116.885 71.2214 118.175 71.1407 119.349 70.6786C120.523 70.2166 121.521 69.3965 122.203 68.3348C122.34 68.1252 122.463 67.9067 122.571 67.6808C122.996 66.7943 123.197 65.8171 123.156 64.8349C123.115 63.8527 122.834 62.8954 122.337 62.0473C121.84 61.1991 121.142 60.4859 120.305 59.9703C119.468 59.4546 118.517 59.1523 117.536 59.0899ZM121.687 68.2323C121.132 68.8991 120.439 69.4374 119.656 69.8098C118.873 70.1821 118.018 70.3798 117.151 70.3889C115.86 70.387 114.613 69.9146 113.645 69.0603C112.677 68.2059 112.053 67.028 111.89 65.747C111.862 65.5277 111.848 65.3069 111.848 65.0858C111.847 65.0552 111.849 65.0245 111.852 64.9939C111.876 63.6041 112.445 62.2794 113.436 61.3048C114.427 60.3302 115.761 59.7837 117.151 59.7828C117.183 59.8677 117.215 59.949 117.25 60.0268C118.76 63.5975 122.033 63.3288 122.454 65.0858C122.658 65.9352 122.534 66.8301 122.108 67.5924C121.988 67.8184 121.847 68.0327 121.687 68.2323Z" fill="#D1D5DB"/>
<path d="M236.978 0H8.02172C5.89501 0.00256073 3.85614 0.848526 2.35233 2.35233C0.848526 3.85614 0.00256073 5.89501 0 8.02172V209.756C0.00256073 211.883 0.848526 213.922 2.35233 215.425C3.85614 216.929 5.89501 217.775 8.02172 217.778H236.978C239.105 217.775 241.144 216.929 242.648 215.425C244.151 213.922 244.997 211.883 245 209.756V8.02172C244.997 5.89501 244.151 3.85614 242.648 2.35233C241.144 0.848526 239.105 0.00256073 236.978 0ZM244.293 209.756C244.291 211.695 243.52 213.555 242.148 214.926C240.777 216.297 238.918 217.069 236.978 217.071H8.02172C6.08237 217.069 4.22303 216.297 2.85171 214.926C1.48038 213.555 0.709087 211.695 0.707071 209.756V8.02172C0.709084 6.08237 1.48038 4.22303 2.85171 2.85171C4.22303 1.48038 6.08237 0.709084 8.02172 0.707071H236.978C238.918 0.709084 240.777 1.48038 242.148 2.85171C243.52 4.22303 244.291 6.08237 244.293 8.02172V209.756Z" fill="#3F3D56"/>
</g>
<defs>
<clipPath id="clip0_6_134">
<rect width="245" height="217.778" fill="white"/>
</clipPath>
</defs>
</svg>
